<mxfile host="Electron" modified="2024-06-06T13:36:21.102Z" agent="Mozilla/5.0 (Windows NT 10.0; Win64; x64) AppleWebKit/537.36 (KHTML, like Gecko) draw.io/24.4.13 Chrome/124.0.6367.207 Electron/30.0.6 Safari/537.36" etag="i8zCres89PX1VZ9oebBe" version="24.4.13" type="device">
  <diagram id="C5RBs43oDa-KdzZeNtuy" name="Client">
    <mxGraphModel dx="955" dy="565" grid="1" gridSize="10" guides="1" tooltips="1" connect="1" arrows="1" fold="1" page="1" pageScale="1" pageWidth="1600" pageHeight="1200" math="0" shadow="0">
      <root>
        <mxCell id="WIyWlLk6GJQsqaUBKTNV-0" />
        <mxCell id="WIyWlLk6GJQsqaUBKTNV-1" parent="WIyWlLk6GJQsqaUBKTNV-0" />
        <mxCell id="6eoSjnXfFRuupV6uI-Vw-0" value="WindowsDriver" style="swimlane;fontStyle=1;align=center;verticalAlign=top;childLayout=stackLayout;horizontal=1;startSize=26;horizontalStack=0;resizeParent=1;resizeParentMax=0;resizeLast=0;collapsible=1;marginBottom=0;whiteSpace=wrap;html=1;fillColor=#f8cecc;strokeColor=#b85450;" parent="WIyWlLk6GJQsqaUBKTNV-1" vertex="1">
          <mxGeometry x="130" y="200" width="320" height="86" as="geometry" />
        </mxCell>
        <mxCell id="6eoSjnXfFRuupV6uI-Vw-1" value="+ field: type" style="text;strokeColor=none;fillColor=none;align=left;verticalAlign=top;spacingLeft=4;spacingRight=4;overflow=hidden;rotatable=0;points=[[0,0.5],[1,0.5]];portConstraint=eastwest;whiteSpace=wrap;html=1;" parent="6eoSjnXfFRuupV6uI-Vw-0" vertex="1">
          <mxGeometry y="26" width="320" height="26" as="geometry" />
        </mxCell>
        <mxCell id="6eoSjnXfFRuupV6uI-Vw-2" value="" style="line;strokeWidth=1;fillColor=none;align=left;verticalAlign=middle;spacingTop=-1;spacingLeft=3;spacingRight=3;rotatable=0;labelPosition=right;points=[];portConstraint=eastwest;strokeColor=inherit;" parent="6eoSjnXfFRuupV6uI-Vw-0" vertex="1">
          <mxGeometry y="52" width="320" height="8" as="geometry" />
        </mxCell>
        <mxCell id="6eoSjnXfFRuupV6uI-Vw-3" value="+ PrintBufferAt(CharInfo[,] buffer, Coords coords): void" style="text;strokeColor=none;fillColor=none;align=left;verticalAlign=top;spacingLeft=4;spacingRight=4;overflow=hidden;rotatable=0;points=[[0,0.5],[1,0.5]];portConstraint=eastwest;whiteSpace=wrap;html=1;" parent="6eoSjnXfFRuupV6uI-Vw-0" vertex="1">
          <mxGeometry y="60" width="320" height="26" as="geometry" />
        </mxCell>
        <mxCell id="6eoSjnXfFRuupV6uI-Vw-5" value="&amp;lt;&amp;lt;struct&amp;gt;&amp;gt;&lt;div&gt;Coords&lt;/div&gt;" style="swimlane;fontStyle=0;childLayout=stackLayout;horizontal=1;startSize=40;fillColor=#f8cecc;horizontalStack=0;resizeParent=1;resizeParentMax=0;resizeLast=0;collapsible=1;marginBottom=0;whiteSpace=wrap;html=1;strokeColor=#b85450;" parent="WIyWlLk6GJQsqaUBKTNV-1" vertex="1">
          <mxGeometry x="120" y="60" width="140" height="92" as="geometry" />
        </mxCell>
        <mxCell id="6eoSjnXfFRuupV6uI-Vw-6" value="+ X: short" style="text;strokeColor=none;fillColor=none;align=left;verticalAlign=top;spacingLeft=4;spacingRight=4;overflow=hidden;rotatable=0;points=[[0,0.5],[1,0.5]];portConstraint=eastwest;whiteSpace=wrap;html=1;" parent="6eoSjnXfFRuupV6uI-Vw-5" vertex="1">
          <mxGeometry y="40" width="140" height="26" as="geometry" />
        </mxCell>
        <mxCell id="6eoSjnXfFRuupV6uI-Vw-7" value="+ Y: short" style="text;strokeColor=none;fillColor=none;align=left;verticalAlign=top;spacingLeft=4;spacingRight=4;overflow=hidden;rotatable=0;points=[[0,0.5],[1,0.5]];portConstraint=eastwest;whiteSpace=wrap;html=1;" parent="6eoSjnXfFRuupV6uI-Vw-5" vertex="1">
          <mxGeometry y="66" width="140" height="26" as="geometry" />
        </mxCell>
        <mxCell id="6eoSjnXfFRuupV6uI-Vw-9" style="edgeStyle=orthogonalEdgeStyle;rounded=0;orthogonalLoop=1;jettySize=auto;html=1;" parent="WIyWlLk6GJQsqaUBKTNV-1" source="6eoSjnXfFRuupV6uI-Vw-6" target="6eoSjnXfFRuupV6uI-Vw-3" edge="1">
          <mxGeometry relative="1" as="geometry" />
        </mxCell>
        <mxCell id="6eoSjnXfFRuupV6uI-Vw-10" value="Renderer" style="swimlane;fontStyle=1;align=center;verticalAlign=top;childLayout=stackLayout;horizontal=1;startSize=26;horizontalStack=0;resizeParent=1;resizeParentMax=0;resizeLast=0;collapsible=1;marginBottom=0;whiteSpace=wrap;html=1;fillColor=#f8cecc;strokeColor=#b85450;" parent="WIyWlLk6GJQsqaUBKTNV-1" vertex="1">
          <mxGeometry x="180" y="310" width="220" height="86" as="geometry" />
        </mxCell>
        <mxCell id="6eoSjnXfFRuupV6uI-Vw-73" value="- _consoleDriver: WindowsDriver" style="text;strokeColor=none;fillColor=none;align=left;verticalAlign=top;spacingLeft=4;spacingRight=4;overflow=hidden;rotatable=0;points=[[0,0.5],[1,0.5]];portConstraint=eastwest;whiteSpace=wrap;html=1;" parent="6eoSjnXfFRuupV6uI-Vw-10" vertex="1">
          <mxGeometry y="26" width="220" height="26" as="geometry" />
        </mxCell>
        <mxCell id="6eoSjnXfFRuupV6uI-Vw-12" value="" style="line;strokeWidth=1;fillColor=none;align=left;verticalAlign=middle;spacingTop=-1;spacingLeft=3;spacingRight=3;rotatable=0;labelPosition=right;points=[];portConstraint=eastwest;strokeColor=inherit;" parent="6eoSjnXfFRuupV6uI-Vw-10" vertex="1">
          <mxGeometry y="52" width="220" height="8" as="geometry" />
        </mxCell>
        <mxCell id="6eoSjnXfFRuupV6uI-Vw-14" value="+ DrawScene(Scene): void" style="text;strokeColor=none;fillColor=none;align=left;verticalAlign=top;spacingLeft=4;spacingRight=4;overflow=hidden;rotatable=0;points=[[0,0.5],[1,0.5]];portConstraint=eastwest;whiteSpace=wrap;html=1;" parent="6eoSjnXfFRuupV6uI-Vw-10" vertex="1">
          <mxGeometry y="60" width="220" height="26" as="geometry" />
        </mxCell>
        <mxCell id="6eoSjnXfFRuupV6uI-Vw-49" style="edgeStyle=orthogonalEdgeStyle;rounded=0;orthogonalLoop=1;jettySize=auto;html=1;exitX=1;exitY=0.25;exitDx=0;exitDy=0;entryX=0;entryY=0.5;entryDx=0;entryDy=0;" parent="WIyWlLk6GJQsqaUBKTNV-1" source="6eoSjnXfFRuupV6uI-Vw-16" target="6eoSjnXfFRuupV6uI-Vw-37" edge="1">
          <mxGeometry relative="1" as="geometry" />
        </mxCell>
        <mxCell id="6eoSjnXfFRuupV6uI-Vw-16" value="&amp;lt;&amp;lt;struct&amp;gt;&amp;gt;&lt;div&gt;SceneObject&lt;/div&gt;" style="swimlane;fontStyle=0;childLayout=stackLayout;horizontal=1;startSize=50;fillColor=#ffe6cc;horizontalStack=0;resizeParent=1;resizeParentMax=0;resizeLast=0;collapsible=1;marginBottom=0;whiteSpace=wrap;html=1;strokeColor=#d79b00;" parent="WIyWlLk6GJQsqaUBKTNV-1" vertex="1">
          <mxGeometry x="510" y="60" width="140" height="128" as="geometry" />
        </mxCell>
        <mxCell id="6eoSjnXfFRuupV6uI-Vw-17" value="+ Object: GameObject" style="text;strokeColor=none;fillColor=none;align=left;verticalAlign=top;spacingLeft=4;spacingRight=4;overflow=hidden;rotatable=0;points=[[0,0.5],[1,0.5]];portConstraint=eastwest;whiteSpace=wrap;html=1;" parent="6eoSjnXfFRuupV6uI-Vw-16" vertex="1">
          <mxGeometry y="50" width="140" height="26" as="geometry" />
        </mxCell>
        <mxCell id="6eoSjnXfFRuupV6uI-Vw-70" value="+ Layer: int" style="text;strokeColor=none;fillColor=none;align=left;verticalAlign=top;spacingLeft=4;spacingRight=4;overflow=hidden;rotatable=0;points=[[0,0.5],[1,0.5]];portConstraint=eastwest;whiteSpace=wrap;html=1;" parent="6eoSjnXfFRuupV6uI-Vw-16" vertex="1">
          <mxGeometry y="76" width="140" height="26" as="geometry" />
        </mxCell>
        <mxCell id="6eoSjnXfFRuupV6uI-Vw-74" value="+ Id: Guid" style="text;strokeColor=none;fillColor=none;align=left;verticalAlign=top;spacingLeft=4;spacingRight=4;overflow=hidden;rotatable=0;points=[[0,0.5],[1,0.5]];portConstraint=eastwest;whiteSpace=wrap;html=1;" parent="6eoSjnXfFRuupV6uI-Vw-16" vertex="1">
          <mxGeometry y="102" width="140" height="26" as="geometry" />
        </mxCell>
        <mxCell id="6eoSjnXfFRuupV6uI-Vw-51" style="edgeStyle=orthogonalEdgeStyle;rounded=0;orthogonalLoop=1;jettySize=auto;html=1;exitX=1;exitY=0.25;exitDx=0;exitDy=0;entryX=1;entryY=0.5;entryDx=0;entryDy=0;" parent="WIyWlLk6GJQsqaUBKTNV-1" source="6eoSjnXfFRuupV6uI-Vw-31" target="6eoSjnXfFRuupV6uI-Vw-43" edge="1">
          <mxGeometry relative="1" as="geometry" />
        </mxCell>
        <mxCell id="6eoSjnXfFRuupV6uI-Vw-31" value="&lt;div&gt;&lt;span style=&quot;background-color: initial;&quot;&gt;GameObject [abstract]&lt;/span&gt;&lt;/div&gt;&lt;div&gt;&lt;/div&gt;" style="swimlane;fontStyle=1;align=center;verticalAlign=top;childLayout=stackLayout;horizontal=1;startSize=30;horizontalStack=0;resizeParent=1;resizeParentMax=0;resizeLast=0;collapsible=1;marginBottom=0;whiteSpace=wrap;html=1;fillColor=#ffe6cc;strokeColor=#d79b00;" parent="WIyWlLk6GJQsqaUBKTNV-1" vertex="1">
          <mxGeometry x="911" y="60" width="250" height="142" as="geometry" />
        </mxCell>
        <mxCell id="_rKwTZCVKRzL6UfceVU6-44" value="+ Coords: Coords" style="text;strokeColor=none;fillColor=none;align=left;verticalAlign=top;spacingLeft=4;spacingRight=4;overflow=hidden;rotatable=0;points=[[0,0.5],[1,0.5]];portConstraint=eastwest;whiteSpace=wrap;html=1;" vertex="1" parent="6eoSjnXfFRuupV6uI-Vw-31">
          <mxGeometry y="30" width="250" height="26" as="geometry" />
        </mxCell>
        <mxCell id="6eoSjnXfFRuupV6uI-Vw-33" value="" style="line;strokeWidth=1;fillColor=none;align=left;verticalAlign=middle;spacingTop=-1;spacingLeft=3;spacingRight=3;rotatable=0;labelPosition=right;points=[];portConstraint=eastwest;strokeColor=inherit;" parent="6eoSjnXfFRuupV6uI-Vw-31" vertex="1">
          <mxGeometry y="56" width="250" height="8" as="geometry" />
        </mxCell>
        <mxCell id="_rKwTZCVKRzL6UfceVU6-22" value="+ Start(): void" style="text;strokeColor=none;fillColor=none;align=left;verticalAlign=top;spacingLeft=4;spacingRight=4;overflow=hidden;rotatable=0;points=[[0,0.5],[1,0.5]];portConstraint=eastwest;whiteSpace=wrap;html=1;" vertex="1" parent="6eoSjnXfFRuupV6uI-Vw-31">
          <mxGeometry y="64" width="250" height="26" as="geometry" />
        </mxCell>
        <mxCell id="_rKwTZCVKRzL6UfceVU6-23" value="+ Update(): void" style="text;strokeColor=none;fillColor=none;align=left;verticalAlign=top;spacingLeft=4;spacingRight=4;overflow=hidden;rotatable=0;points=[[0,0.5],[1,0.5]];portConstraint=eastwest;whiteSpace=wrap;html=1;" vertex="1" parent="6eoSjnXfFRuupV6uI-Vw-31">
          <mxGeometry y="90" width="250" height="26" as="geometry" />
        </mxCell>
        <mxCell id="_rKwTZCVKRzL6UfceVU6-24" value="+ Delete(): void" style="text;strokeColor=none;fillColor=none;align=left;verticalAlign=top;spacingLeft=4;spacingRight=4;overflow=hidden;rotatable=0;points=[[0,0.5],[1,0.5]];portConstraint=eastwest;whiteSpace=wrap;html=1;" vertex="1" parent="6eoSjnXfFRuupV6uI-Vw-31">
          <mxGeometry y="116" width="250" height="26" as="geometry" />
        </mxCell>
        <mxCell id="6eoSjnXfFRuupV6uI-Vw-64" style="edgeStyle=orthogonalEdgeStyle;rounded=0;orthogonalLoop=1;jettySize=auto;html=1;entryX=0;entryY=0.25;entryDx=0;entryDy=0;" parent="WIyWlLk6GJQsqaUBKTNV-1" source="6eoSjnXfFRuupV6uI-Vw-36" target="6eoSjnXfFRuupV6uI-Vw-59" edge="1">
          <mxGeometry relative="1" as="geometry" />
        </mxCell>
        <mxCell id="6eoSjnXfFRuupV6uI-Vw-36" value="Scene [abstract]" style="swimlane;fontStyle=1;align=center;verticalAlign=top;childLayout=stackLayout;horizontal=1;startSize=26;horizontalStack=0;resizeParent=1;resizeParentMax=0;resizeLast=0;collapsible=1;marginBottom=0;whiteSpace=wrap;html=1;fillColor=#dae8fc;strokeColor=#6c8ebf;" parent="WIyWlLk6GJQsqaUBKTNV-1" vertex="1">
          <mxGeometry x="660" y="320" width="490" height="216" as="geometry" />
        </mxCell>
        <mxCell id="6eoSjnXfFRuupV6uI-Vw-37" value="- _sceneObjects: List&amp;lt;SceneObject&amp;gt;" style="text;strokeColor=none;fillColor=none;align=left;verticalAlign=top;spacingLeft=4;spacingRight=4;overflow=hidden;rotatable=0;points=[[0,0.5],[1,0.5]];portConstraint=eastwest;whiteSpace=wrap;html=1;" parent="6eoSjnXfFRuupV6uI-Vw-36" vertex="1">
          <mxGeometry y="26" width="490" height="26" as="geometry" />
        </mxCell>
        <mxCell id="6eoSjnXfFRuupV6uI-Vw-38" value="" style="line;strokeWidth=1;fillColor=none;align=left;verticalAlign=middle;spacingTop=-1;spacingLeft=3;spacingRight=3;rotatable=0;labelPosition=right;points=[];portConstraint=eastwest;strokeColor=inherit;" parent="6eoSjnXfFRuupV6uI-Vw-36" vertex="1">
          <mxGeometry y="52" width="490" height="8" as="geometry" />
        </mxCell>
        <mxCell id="6eoSjnXfFRuupV6uI-Vw-39" value="+ Start(): void" style="text;strokeColor=none;fillColor=none;align=left;verticalAlign=top;spacingLeft=4;spacingRight=4;overflow=hidden;rotatable=0;points=[[0,0.5],[1,0.5]];portConstraint=eastwest;whiteSpace=wrap;html=1;" parent="6eoSjnXfFRuupV6uI-Vw-36" vertex="1">
          <mxGeometry y="60" width="490" height="26" as="geometry" />
        </mxCell>
        <mxCell id="6eoSjnXfFRuupV6uI-Vw-40" value="+ Update(float deltaTime): void" style="text;strokeColor=none;fillColor=none;align=left;verticalAlign=top;spacingLeft=4;spacingRight=4;overflow=hidden;rotatable=0;points=[[0,0.5],[1,0.5]];portConstraint=eastwest;whiteSpace=wrap;html=1;" parent="6eoSjnXfFRuupV6uI-Vw-36" vertex="1">
          <mxGeometry y="86" width="490" height="26" as="geometry" />
        </mxCell>
        <mxCell id="6eoSjnXfFRuupV6uI-Vw-41" value="+ Delete(): void" style="text;strokeColor=none;fillColor=none;align=left;verticalAlign=top;spacingLeft=4;spacingRight=4;overflow=hidden;rotatable=0;points=[[0,0.5],[1,0.5]];portConstraint=eastwest;whiteSpace=wrap;html=1;" parent="6eoSjnXfFRuupV6uI-Vw-36" vertex="1">
          <mxGeometry y="112" width="490" height="26" as="geometry" />
        </mxCell>
        <mxCell id="6eoSjnXfFRuupV6uI-Vw-43" value="+ GetGameObjects(): List&amp;lt;SceneObject&amp;gt;" style="text;strokeColor=none;fillColor=none;align=left;verticalAlign=top;spacingLeft=4;spacingRight=4;overflow=hidden;rotatable=0;points=[[0,0.5],[1,0.5]];portConstraint=eastwest;whiteSpace=wrap;html=1;" parent="6eoSjnXfFRuupV6uI-Vw-36" vertex="1">
          <mxGeometry y="138" width="490" height="26" as="geometry" />
        </mxCell>
        <mxCell id="6eoSjnXfFRuupV6uI-Vw-72" value="+ RemoveObject(SceneObject sceneObject): void" style="text;strokeColor=none;fillColor=none;align=left;verticalAlign=top;spacingLeft=4;spacingRight=4;overflow=hidden;rotatable=0;points=[[0,0.5],[1,0.5]];portConstraint=eastwest;whiteSpace=wrap;html=1;" parent="6eoSjnXfFRuupV6uI-Vw-36" vertex="1">
          <mxGeometry y="164" width="490" height="26" as="geometry" />
        </mxCell>
        <mxCell id="6eoSjnXfFRuupV6uI-Vw-75" value="# CreateObject&amp;lt;T&amp;gt;(Coords coords, int layer, params object?[]? args): SceneObject" style="text;strokeColor=none;fillColor=none;align=left;verticalAlign=top;spacingLeft=4;spacingRight=4;overflow=hidden;rotatable=0;points=[[0,0.5],[1,0.5]];portConstraint=eastwest;whiteSpace=wrap;html=1;" parent="6eoSjnXfFRuupV6uI-Vw-36" vertex="1">
          <mxGeometry y="190" width="490" height="26" as="geometry" />
        </mxCell>
        <mxCell id="6eoSjnXfFRuupV6uI-Vw-44" style="edgeStyle=orthogonalEdgeStyle;rounded=0;orthogonalLoop=1;jettySize=auto;html=1;exitX=1;exitY=0.5;exitDx=0;exitDy=0;entryX=0;entryY=0.25;entryDx=0;entryDy=0;" parent="WIyWlLk6GJQsqaUBKTNV-1" source="6eoSjnXfFRuupV6uI-Vw-6" target="6eoSjnXfFRuupV6uI-Vw-16" edge="1">
          <mxGeometry relative="1" as="geometry" />
        </mxCell>
        <mxCell id="6eoSjnXfFRuupV6uI-Vw-50" style="edgeStyle=orthogonalEdgeStyle;rounded=0;orthogonalLoop=1;jettySize=auto;html=1;exitX=0;exitY=0.5;exitDx=0;exitDy=0;entryX=1;entryY=0.5;entryDx=0;entryDy=0;" parent="WIyWlLk6GJQsqaUBKTNV-1" source="6eoSjnXfFRuupV6uI-Vw-37" target="6eoSjnXfFRuupV6uI-Vw-14" edge="1">
          <mxGeometry relative="1" as="geometry" />
        </mxCell>
        <mxCell id="6eoSjnXfFRuupV6uI-Vw-59" value="GameManager" style="swimlane;fontStyle=1;align=center;verticalAlign=top;childLayout=stackLayout;horizontal=1;startSize=26;horizontalStack=0;resizeParent=1;resizeParentMax=0;resizeLast=0;collapsible=1;marginBottom=0;whiteSpace=wrap;html=1;fillColor=#d5e8d4;strokeColor=#82b366;" parent="WIyWlLk6GJQsqaUBKTNV-1" vertex="1">
          <mxGeometry x="900" y="580" width="220" height="112" as="geometry" />
        </mxCell>
        <mxCell id="6eoSjnXfFRuupV6uI-Vw-60" value="- _currentScene: Scene" style="text;strokeColor=none;fillColor=none;align=left;verticalAlign=top;spacingLeft=4;spacingRight=4;overflow=hidden;rotatable=0;points=[[0,0.5],[1,0.5]];portConstraint=eastwest;whiteSpace=wrap;html=1;" parent="6eoSjnXfFRuupV6uI-Vw-59" vertex="1">
          <mxGeometry y="26" width="220" height="26" as="geometry" />
        </mxCell>
        <mxCell id="6eoSjnXfFRuupV6uI-Vw-61" value="" style="line;strokeWidth=1;fillColor=none;align=left;verticalAlign=middle;spacingTop=-1;spacingLeft=3;spacingRight=3;rotatable=0;labelPosition=right;points=[];portConstraint=eastwest;strokeColor=inherit;" parent="6eoSjnXfFRuupV6uI-Vw-59" vertex="1">
          <mxGeometry y="52" width="220" height="8" as="geometry" />
        </mxCell>
        <mxCell id="6eoSjnXfFRuupV6uI-Vw-62" value="+ SwitchScene&amp;lt;T&amp;gt;(): void" style="text;strokeColor=none;fillColor=none;align=left;verticalAlign=top;spacingLeft=4;spacingRight=4;overflow=hidden;rotatable=0;points=[[0,0.5],[1,0.5]];portConstraint=eastwest;whiteSpace=wrap;html=1;" parent="6eoSjnXfFRuupV6uI-Vw-59" vertex="1">
          <mxGeometry y="60" width="220" height="26" as="geometry" />
        </mxCell>
        <mxCell id="6eoSjnXfFRuupV6uI-Vw-65" value="+ Update(float deltaTime): void" style="text;strokeColor=none;fillColor=none;align=left;verticalAlign=top;spacingLeft=4;spacingRight=4;overflow=hidden;rotatable=0;points=[[0,0.5],[1,0.5]];portConstraint=eastwest;whiteSpace=wrap;html=1;" parent="6eoSjnXfFRuupV6uI-Vw-59" vertex="1">
          <mxGeometry y="86" width="220" height="26" as="geometry" />
        </mxCell>
      </root>
    </mxGraphModel>
  </diagram>
</mxfile>
